<!DOCTYPE svg PUBLIC "-//W3C//DTD SVG 1.1//EN" "http://www.w3.org/Graphics/SVG/1.1/DTD/svg11.dtd">
<!-- Uploaded to: SVG Repo, www.svgrepo.com, Transformed by: SVG Repo Mixer Tools -->
<svg width="800px" height="800px" viewBox="-2.4 -2.4 28.80 28.80" xmlns="http://www.w3.org/2000/svg" fill="none">
<g id="SVGRepo_bgCarrier" stroke-width="0">
<path transform="translate(-2.4, -2.4), scale(0.8999999999999999)" d="M16,27.60093800847729C17.825146087252556,27.694087149705368,19.742399631061204,28.897886104355692,21.39747831483439,28.122934781468604C23.059339815988267,27.34480756528194,23.214127692715586,24.964080210585283,24.476312314314423,23.63210588854029C25.776827425928886,22.259681677011187,28.042718237102903,21.874762368532373,28.910225752392513,20.19478662976562C29.77292422344635,18.524123868120522,29.53878359999212,16.455263272974424,29.130002091283927,14.619981171158873C28.73630209336409,12.852409634103626,27.29694470012831,11.549625743261121,26.611325083797958,9.873548606410626C25.818375329628715,7.935090426424836,26.38416465609376,5.26496421152933,24.76154229952848,3.940771583485576C23.166909983638515,2.639421119159668,20.736022474377123,3.4461609950680407,18.67830692447567,3.399556600687154C16.891254901087375,3.3590823586175254,15.153874084138604,3.4475072668710425,13.381949254168749,3.683039633019755C11.5065037079038,3.9323324470396144,9.640419304282492,4.122391966064361,7.887379695089692,4.833936084674111C5.884221116970274,5.647001401298558,3.6464121455054057,6.382639554046624,2.3923565769893713,8.143623406688365C1.1360351020335193,9.907789115662705,0.6976048155956516,12.292936516830212,1.0543103299038457,14.429144716706412C1.403207421720758,16.51859048795483,3.105510417779491,18.06589492445087,4.336999501503106,19.789538579135844C5.31449130009584,21.157677004737266,6.510701925738029,22.283176459743057,7.588099403125954,23.574109317656795C8.703326520967337,24.91036948224182,9.272476930810779,26.83272330129371,10.842364807345245,27.58423830908511C12.410194216781932,28.3347679159825,14.264046570472525,27.512340951889982,16,27.60093800847729" fill="#7ed0ec" strokewidth="0"/>
</g>
<g id="SVGRepo_tracerCarrier" stroke-linecap="round" stroke-linejoin="round"/>
<g id="SVGRepo_iconCarrier"> <path stroke="#ffffff" stroke-linecap="round" stroke-linejoin="round" stroke-width="2" d="M5 8h9.11A1.89 1.89 0 0 0 16 6.11v0c0-1.615-1.894-2.486-3.12-1.435L12.5 5M3 12h14.902C19.06 12 20 12.94 20 14.098v0c0 2.152-2.853 2.91-3.92 1.041L16 15M5 16h6.11A1.89 1.89 0 0 1 13 17.89v0c0 1.615-1.894 2.486-3.12 1.435L9.5 19"/> </g>
</svg>