<!DOCTYPE svg PUBLIC "-//W3C//DTD SVG 1.1//EN" "http://www.w3.org/Graphics/SVG/1.1/DTD/svg11.dtd">
<!-- Uploaded to: SVG Repo, www.svgrepo.com, Transformed by: SVG Repo Mixer Tools -->
<svg width="800px" height="800px" viewBox="-2.4 -2.4 28.80 28.80" fill="none" xmlns="http://www.w3.org/2000/svg">
<g id="SVGRepo_bgCarrier" stroke-width="0" transform="translate(0,0), scale(1)">
<path transform="translate(-2.4, -2.4), scale(0.8999999999999999)" d="M16,29.030775701006252C18.40218455446923,28.935599834817083,20.863163188925032,29.21403250809872,23.039663619051375,28.19305505639118C25.30270121515465,27.131483771586172,27.33246759779488,25.42413267505499,28.452463550404687,23.189433182900153C29.54997967183116,20.999587127235017,29.691921109694736,18.388926696102285,29.150629483163357,16C28.65724693114787,13.822514348773987,26.99477368569156,12.194075908718684,25.57134997342443,10.473978516335292C24.347054008543008,8.99451159545346,22.71656515684888,8.041420083077814,21.404407970607284,6.639290810077984C19.464694950435785,4.566575410338819,18.732587599451996,1.0154954030657346,16.000000000000004,0.24633954092860222C13.390724566612345,-0.48810699462729545,10.859052211615241,1.6745449254129823,8.498207613825802,3.006514439312916C6.118311428918439,4.349232705272279,3.2205059611352365,5.4976779430904195,2.1996689969323118,8.032375180472924C1.1812921845694766,10.560963959510675,2.384689208113369,13.420145189864368,3.2651446039477996,15.999999999999998C3.9635540908918774,18.04643538203253,5.904925971735095,19.351235270614648,6.742878721115938,21.344601462284714C7.748946676130087,23.73788897107285,6.633336979841211,27.10550973470802,8.630733052268617,28.763944768008763C10.554642921246451,30.361364314222396,13.501324828457271,29.129774578230112,16,29.030775701006252" fill="#7ed0ec" strokewidth="0"/>
</g>
<g id="SVGRepo_tracerCarrier" stroke-linecap="round" stroke-linejoin="round" stroke="#CCCCCC" stroke-width="0.624"/>
<g id="SVGRepo_iconCarrier"> <path d="M21 18C21 18 19.8096 17.5305 19 17.3021C13.8797 15.8574 10.1203 20.1426 5 18.6979C4.19041 18.4695 3 18 3 18M21 12C21 12 19.8096 11.5305 19 11.3021C13.8797 9.85739 10.1203 14.1426 5 12.6979C4.19041 12.4695 3 12 3 12M21 6C21 6 19.8096 5.53048 19 5.30206C13.8797 3.85739 10.1203 8.14261 5 6.69794C4.19041 6.46952 3 6 3 6" stroke="#ffffff" stroke-width="2.4" stroke-linecap="round" stroke-linejoin="round"/> </g>
</svg>