<!DOCTYPE svg PUBLIC "-//W3C//DTD SVG 1.1//EN" "http://www.w3.org/Graphics/SVG/1.1/DTD/svg11.dtd">
<!-- Uploaded to: SVG Repo, www.svgrepo.com, Transformed by: SVG Repo Mixer Tools -->
<svg width="800px" height="800px" viewBox="-2.8 -2.8 33.60 33.60" version="1.1" xmlns="http://www.w3.org/2000/svg" xmlns:xlink="http://www.w3.org/1999/xlink" xmlns:sketch="http://www.bohemiancoding.com/sketch/ns" fill="#000000" stroke="#000000">
<g id="SVGRepo_bgCarrier" stroke-width="0">
<path transform="translate(-2.8, -2.8), scale(1.05)" d="M16,29.613957397051546C18.303709201169216,29.81195859446647,19.98499394336646,27.503675287719116,22.09250166531848,26.55252242952961C24.476428316940098,25.47661716722108,27.704740119597794,25.762373919916403,29.234566091343027,23.64098029544479C30.75299873629348,21.53538567770359,30.559273094095992,18.45048583396278,29.70236845000794,16C28.911708561891803,13.738953956337653,26.33948377329949,12.751262373264817,24.788316515771008,10.926063093895976C23.565133469296658,9.48679031133457,22.733240821633945,7.865855586527758,21.543020509673582,6.399206849849033C19.74949499320695,4.189135397955983,18.84618939406912,0.07780625627424288,16.000000000000004,0.09666185963310703C13.144511465205307,0.11557906848788939,12.665571436408836,4.611968263522374,10.499220524571447,6.472370467325662C8.854302180644215,7.88498081378295,6.197354283627442,7.850010826246264,4.926197364394525,9.606537067380385C3.6282373858521035,11.400100653241568,3.1424650376465872,13.834756206948368,3.604298080072592,15.999999999999998C4.045943884775669,18.070598570291438,6.117474165319263,19.27329051232755,7.354531429256971,20.99146360658893C8.450852063636471,22.514164836019873,9.15504868853247,24.229762491174426,10.48356402586949,25.554747383894743C12.128042879062825,27.194856139618086,13.6859751372318,29.415069580202328,16,29.613957397051546" fill="#7ed0ec" strokewidth="0"/>
</g>
<g id="SVGRepo_tracerCarrier" stroke-linecap="round" stroke-linejoin="round"/>
<g id="SVGRepo_iconCarrier"> <title>wind</title> <desc>Created with Sketch Beta.</desc> <defs> </defs> <g id="Page-1" stroke="none" stroke-width="1" fill="none" fill-rule="evenodd" sketch:type="MSPage"> <g id="Icon-Set" sketch:type="MSLayerGroup" transform="translate(-466.000000, -830.000000)" fill="#ffffff"> <path d="M488,844 L467,844 C466.447,844 466,844.447 466,845 C466,845.553 466.447,846 467,846 L486.833,846 C489.687,846 492,847.791 492,850 C492,852.209 490.291,854 486,854 L486,856 L488,856 C491.313,856 494,853.313 494,850 C494,846.687 491.313,844 488,844 L488,844 Z M480.002,848 L480,848 L472,848 C471.447,848 471,848.448 471,849 C471,849.553 471.447,850 472,850 L480,850 C481.104,850 482,850.896 482,852 C482,853.104 481.104,854 480,854 L480,856 C482.209,856 484,854.209 484,852 C484,849.792 482.21,848.002 480.002,848 L480.002,848 Z M475,838 L487,838 C487.553,838 488,837.553 488,837 C488,836.448 487.553,836 487,836 L475,836 C474.447,836 474,836.448 474,837 C474,837.553 474.447,838 475,838 L475,838 Z M470,842 L488,842 C491.313,842 494,839.313 494,836 C494,832.687 491.313,830 488,830 L488,832 C490.822,832.531 492,833.791 492,836 C492,838.209 489.687,840 486.833,840 L470,840 C469.447,840 469,840.448 469,841 C469,841.553 469.447,842 470,842 L470,842 Z" id="wind" sketch:type="MSShapeGroup"> </path> </g> </g> </g>
</svg>